<?xml version="1.0" standalone="no"?>
<!DOCTYPE svg PUBLIC "-//W3C//DTD SVG 20010904//EN"
 "http://www.w3.org/TR/2001/REC-SVG-20010904/DTD/svg10.dtd">
<svg version="1.0" xmlns="http://www.w3.org/2000/svg"
 width="840.000000pt" height="720.000000pt" viewBox="0 0 840.000000 720.000000"
 preserveAspectRatio="xMidYMid meet">
<metadata>
Created by potrace 1.16, written by Peter Selinger 2001-2019
</metadata>
<g transform="translate(0.000000,720.000000) scale(0.100000,-0.100000)"
fill= "#08F7FE" stroke="none">
<path d="M4072 6789 c-76 -13 -197 -55 -262 -91 -174 -97 -290 -243 -351 -438
-33 -106 -33 -264 0 -370 74 -239 231 -403 468 -489 259 -95 551 -48 771 123
202 159 308 438 257 678 -52 250 -220 446 -460 539 -137 53 -288 70 -423 48z"/>
<path d="M3430 4172 l0 -1068 770 0 770 1 0 1068 0 1067 -770 0 -770 0 0
-1068z"/>
<path d="M2513 4591 l-442 -447 200 -200 199 -199 450 450 450 450 -197 197
c-109 109 -202 198 -208 197 -5 0 -209 -202 -452 -448z"/>
<path d="M5228 4843 l-198 -198 450 -450 450 -450 200 200 200 200 -443 445
c-243 245 -446 446 -452 448 -5 1 -99 -87 -207 -195z"/>
<path d="M3430 1665 l0 -1265 283 2 282 3 3 1263 2 1262 -285 0 -285 0 0
-1265z"/>
<path d="M4402 1668 l3 -1263 283 -3 282 -2 0 1265 0 1265 -285 0 -285 0 2
-1262z"/>
</g>
</svg>
